<svg xmlns="http://www.w3.org/2000/svg" xmlns:xlink="http://www.w3.org/1999/xlink" viewBox="0 0 89.58 95.63"><defs><style>.cls-1{fill:url(#linear-gradient);}</style><linearGradient id="linear-gradient" y1="47.81" x2="89.58" y2="47.81" gradientUnits="userSpaceOnUse"><stop offset="0" stop-color="#191e66"/><stop offset="1" stop-color="#2d32b9"/></linearGradient></defs><title>Recurso 18</title><g id="Capa_2" data-name="Capa 2"><g id="Capa_1-2" data-name="Capa 1"><path class="cls-1" d="M86.36,7C80-5.9,57.73,3,57.73,3S46.82,30,42.38,31.46,47.19,6.53,47.19,6.53c-9,.9-29.34,16.19-29.34,16.19s7,27.62,2.3,28S15.23,25.9,15.23,25.9c-8,4.26-14,15.81-14,15.81-6.75,18.21,17,25.93,17,25.93a46.29,46.29,0,0,1-1.56,21.91h0A33.78,33.78,0,0,0,15,95.63l2.33-.46c.06-.67.15-1.31.27-1.94h0v0c.08-.39.21-1,.37-1.63h0c.43-1.54.71-2.66.86-3.46h0c1.27-4.8,3.21-11.1,5-12.7a4.89,4.89,0,0,1-.71-1l.71,1c5.68,7.75,25.89,5.21,36.55.73s5.19-6.66-1.8-10.55-19.25-.07-23.35-1.33.91-4.32,8.43-5.22,12.69,5.76,24.87,4.52S85.41,38,85.41,38c-7.75,4.21-23.46,2.59-24.59-.14s20.84-6.81,24.09-8.34S92.78,20,86.36,7Z"/></g></g></svg>